<svg viewBox="0 0 135.46666 98.893845" id="svg5" xmlns="http://www.w3.org/2000/svg" xmlns:svg="http://www.w3.org/2000/svg">
   <path style="fill:#000000;stroke-width:0.269466" d="m 47.618223,95.796025 v -3.09779 l 32.93422,-0.0684 32.934237,-0.0684 1.13345,-7.27556 c 0.6234,-4.001569 1.46183,-9.367289 1.8632,-11.923839 l 0.72977,-4.64828 h 3.19719 c 1.77487,0 3.19718,0.11068 3.19718,0.24881 0,0.13685 -0.91323,6.29076 -2.0294,13.675369 l -2.02938,13.42656 -1.3971,1.41469 -1.39709,1.41469 H 82.186363 47.618223 Z m -33.913061,-1.69301 c -1.65204,-2.48673 -3.00371,-4.65815 -3.00371,-4.82539 0,-0.16723 1.04372,-1.00572 2.31937,-1.8633 3.20563,-2.15506 4.75626,-3.61741 5.60493,-5.2858 0.75062,-1.475649 0.83955,-1.951509 8.92797,-47.771685 1.25578,-7.11389 2.3454,-13.20718 2.42138,-13.54064 l 0.13813,-0.6063 h 6.761491 6.76149 l -0.15665,0.87577 c -0.0862,0.48167 -2.58922,14.67758 -5.56236,31.54648 -2.973141,16.868906 -5.623771,31.244615 -5.890291,31.946045 -1.05266,2.77038 -4.29687,6.50482 -8.25639,9.50399 -2.73365,2.07065 -6.40102,4.54216 -6.73992,4.54216 -0.17696,0 -1.67341,-2.0346 -3.32544,-4.52133 z M 54.893793,80.647146 c -3.49945,-0.3941 -12.38154,-2.6922 -13.70309,-3.54547 -0.51092,-0.32987 2.35478,-10.43151 2.9403,-10.3646 0.2136,0.0244 2.03773,0.4794 4.05362,1.01109 4.73071,1.24773 8.27391,1.77138 11.96374,1.76812 3.26274,-0.003 5.74971,-0.46552 6.83752,-1.27192 2.16385,-1.60409 3.61833,-8.296996 2.19601,-10.105176 -0.70986,-0.90244 -3.08435,-1.8561 -7.85712,-3.15566 -6.21746,-1.69291 -8.67061,-2.79993 -10.92096,-4.92821 -3.34355,-3.1622 -3.99246,-7.44261 -2.35761,-15.55139 2.06642,-10.24933 5.37794,-13.75415 13.98842,-14.80494 3.96136,-0.48344 11.67458,-0.37009 16.43821,0.24155 3.9693,0.50966 8.94988,1.45049 9.24595,1.74656 0.0745,0.0745 -0.3884,2.62412 -1.02856,5.66594 -0.97376,4.62692 -1.23392,5.50837 -1.59223,5.39468 -1.19976,-0.3807 -8.70311,-1.48918 -11.99653,-1.77225 -6.16411,-0.52982 -9.77738,0.008 -10.93041,1.62744 -0.69066,0.96995 -1.30144,3.35548 -1.51512,5.91761 -0.16222,1.94524 -0.1349,2.08994 0.54779,2.90127 0.85385,1.01474 2.2514,1.57132 7.32109,2.91563 8.80995,2.33611 12.58989,4.47894 14.14583,8.01922 1.64699,3.74746 0.2772,14.182796 -2.6158,19.927506 -1.13278,2.24941 -3.58042,4.82019 -5.63073,5.91403 -1.83554,0.97924 -5.41211,1.98301 -8.34752,2.34273 -2.27235,0.27848 -9.07935,0.34315 -11.1828,0.10624 z m -52.0740112,-7.3371 c -1.4449,-0.25529 -2.71249008,-0.54957 -2.81687008,-0.65395 C -0.10146828,72.551706 2.6186818,56.73736 6.0476818,37.51311 L 12.282252,2.55992 13.698892,1.27996 15.115532,0 h 57.743471 57.743467 l 1.15078,1.24099 c 2.0182,2.17642 1.99729,1.12379 0.27249,13.71434 l -1.55042,11.31755 -3.16446,0.0759 c -2.58688,0.062 -3.16446,0.006 -3.16446,-0.30601 0,-0.4108 2.31462,-17.51465 2.56709,-18.96932 l 0.15197,-0.87577 -54.376847,2.1e-4 -54.376861,2e-4 -6.04917,33.8177 C 8.4646218,60.13011 5.8986318,73.821496 5.7301418,73.803856 c -0.15579,-0.0163 -1.46546,-0.23853 -2.91036,-0.49382 z M 96.931473,58.13716 c 0.002,-0.41028 0.75252,-5.21827 0.94727,-6.06297 0.13945,-0.60486 0.13149,-0.6063 -3.36841,-0.6063 h -3.50819 l 0.02,-0.74103 c 0.0111,-0.40757 0.22952,-2.01425 0.48555,-3.57041 l 0.46552,-2.82939 3.54072,-0.0751 c 3.07946,-0.0653 3.55806,-0.13551 3.67381,-0.53893 0.0732,-0.25512 0.33722,-1.82803 0.58674,-3.49534 l 0.453677,-3.03149 h 3.69982 3.69983 l -0.49597,2.89676 c -0.76812,4.48651 -0.96948,4.10934 2.19393,4.10934 1.97666,0 2.69436,0.0897 2.69357,0.33683 -0.002,0.37988 -0.73099,5.0607 -0.96627,6.19771 l -0.15333,0.74103 h -2.76852 -2.76849 l -0.46557,2.89675 c -0.25608,1.59322 -0.5295,3.16959 -0.60763,3.50305 -0.13856,0.5915 -0.23011,0.6063 -3.7506,0.6063 -2.707777,0 -3.608297,-0.0841 -3.607477,-0.33683 z m 21.943237,-0.26947 c 0.37515,-1.77845 0.99713,-6.18327 0.88845,-6.29194 -0.0693,-0.0694 -1.35474,-0.20089 -2.8565,-0.29239 -1.50176,-0.0915 -2.72828,-0.23897 -2.72558,-0.32774 0.0218,-0.71561 1.07747,-6.58817 1.20781,-6.7185 0.0919,-0.0919 1.43301,-0.21398 2.98024,-0.27125 1.54723,-0.0573 2.81362,-0.18133 2.81423,-0.27567 0.002,-0.25818 0.7904,-5.18256 0.96626,-6.03241 l 0.15333,-0.74103 h 3.61638 c 2.71441,0 3.61593,0.084 3.61458,0.33683 -7.6e-4,0.18526 -0.24269,1.73132 -0.53714,3.43569 -0.29445,1.70437 -0.53616,3.12916 -0.53714,3.16622 -7.7e-4,0.037 1.57459,0.0674 3.50126,0.0674 3.15558,0 3.50332,0.0467 3.50574,0.47156 0.006,1.01837 -0.92108,6.41879 -1.15487,6.72878 -0.16659,0.2209 -1.36509,0.35369 -3.6479,0.4042 l -3.39981,0.0752 -0.52702,3.43569 -0.52701,3.43567 h -3.7316 c -3.72807,0 -3.73148,-5.3e-4 -3.60371,-0.60629 z" id="path1190" />
</svg>